<mxfile host="app.diagrams.net" agent="Mozilla/5.0 (Windows NT 10.0; Win64; x64) AppleWebKit/537.36 (KHTML, like Gecko) Chrome/128.0.0.0 Safari/537.36 Edg/128.0.0.0" version="24.7.10">
  <diagram name="Page-1" id="B0hmuPbm0VEshT8cctYc">
    <mxGraphModel dx="2208" dy="1813" grid="1" gridSize="10" guides="1" tooltips="1" connect="1" arrows="1" fold="1" page="1" pageScale="1" pageWidth="850" pageHeight="1100" math="0" shadow="0">
      <root>
        <mxCell id="0" />
        <mxCell id="1" parent="0" />
        <mxCell id="uNBusU7-LIBpm6ln_LhO-8" style="rounded=0;orthogonalLoop=1;jettySize=auto;html=1;exitX=0.5;exitY=0.5;exitDx=0;exitDy=0;exitPerimeter=0;entryX=0.061;entryY=0.207;entryDx=0;entryDy=0;entryPerimeter=0;" edge="1" parent="1" source="uNBusU7-LIBpm6ln_LhO-1" target="uNBusU7-LIBpm6ln_LhO-9">
          <mxGeometry relative="1" as="geometry" />
        </mxCell>
        <mxCell id="uNBusU7-LIBpm6ln_LhO-23" style="rounded=0;orthogonalLoop=1;jettySize=auto;html=1;" edge="1" parent="1" source="uNBusU7-LIBpm6ln_LhO-1" target="uNBusU7-LIBpm6ln_LhO-17">
          <mxGeometry relative="1" as="geometry" />
        </mxCell>
        <mxCell id="uNBusU7-LIBpm6ln_LhO-27" style="rounded=0;orthogonalLoop=1;jettySize=auto;html=1;" edge="1" parent="1" source="uNBusU7-LIBpm6ln_LhO-1" target="uNBusU7-LIBpm6ln_LhO-25">
          <mxGeometry relative="1" as="geometry" />
        </mxCell>
        <mxCell id="uNBusU7-LIBpm6ln_LhO-29" style="rounded=0;orthogonalLoop=1;jettySize=auto;html=1;entryX=0;entryY=0.5;entryDx=0;entryDy=0;" edge="1" parent="1" source="uNBusU7-LIBpm6ln_LhO-1" target="uNBusU7-LIBpm6ln_LhO-26">
          <mxGeometry relative="1" as="geometry" />
        </mxCell>
        <mxCell id="uNBusU7-LIBpm6ln_LhO-31" style="rounded=0;orthogonalLoop=1;jettySize=auto;html=1;entryX=0;entryY=0.5;entryDx=0;entryDy=0;" edge="1" parent="1" source="uNBusU7-LIBpm6ln_LhO-1" target="uNBusU7-LIBpm6ln_LhO-24">
          <mxGeometry relative="1" as="geometry" />
        </mxCell>
        <mxCell id="uNBusU7-LIBpm6ln_LhO-1" value="Pengguna" style="shape=umlActor;verticalLabelPosition=bottom;verticalAlign=top;html=1;outlineConnect=0;" vertex="1" parent="1">
          <mxGeometry x="150" y="-100" width="30" height="60" as="geometry" />
        </mxCell>
        <mxCell id="uNBusU7-LIBpm6ln_LhO-19" style="rounded=0;orthogonalLoop=1;jettySize=auto;html=1;entryX=0;entryY=0.5;entryDx=0;entryDy=0;" edge="1" parent="1" source="uNBusU7-LIBpm6ln_LhO-2" target="uNBusU7-LIBpm6ln_LhO-17">
          <mxGeometry relative="1" as="geometry" />
        </mxCell>
        <mxCell id="uNBusU7-LIBpm6ln_LhO-2" value="Admin" style="shape=umlActor;verticalLabelPosition=bottom;verticalAlign=top;html=1;outlineConnect=0;" vertex="1" parent="1">
          <mxGeometry x="150" y="30" width="30" height="60" as="geometry" />
        </mxCell>
        <mxCell id="uNBusU7-LIBpm6ln_LhO-11" style="rounded=0;orthogonalLoop=1;jettySize=auto;html=1;entryX=1;entryY=0.5;entryDx=0;entryDy=0;" edge="1" parent="1" source="uNBusU7-LIBpm6ln_LhO-3" target="uNBusU7-LIBpm6ln_LhO-9">
          <mxGeometry relative="1" as="geometry" />
        </mxCell>
        <mxCell id="uNBusU7-LIBpm6ln_LhO-20" style="rounded=0;orthogonalLoop=1;jettySize=auto;html=1;entryX=1;entryY=0.5;entryDx=0;entryDy=0;" edge="1" parent="1" source="uNBusU7-LIBpm6ln_LhO-3" target="uNBusU7-LIBpm6ln_LhO-17">
          <mxGeometry relative="1" as="geometry" />
        </mxCell>
        <mxCell id="uNBusU7-LIBpm6ln_LhO-28" style="rounded=0;orthogonalLoop=1;jettySize=auto;html=1;entryX=1;entryY=0.5;entryDx=0;entryDy=0;" edge="1" parent="1" source="uNBusU7-LIBpm6ln_LhO-3" target="uNBusU7-LIBpm6ln_LhO-25">
          <mxGeometry relative="1" as="geometry" />
        </mxCell>
        <mxCell id="uNBusU7-LIBpm6ln_LhO-30" style="rounded=0;orthogonalLoop=1;jettySize=auto;html=1;entryX=1;entryY=0.5;entryDx=0;entryDy=0;" edge="1" parent="1" source="uNBusU7-LIBpm6ln_LhO-3" target="uNBusU7-LIBpm6ln_LhO-24">
          <mxGeometry relative="1" as="geometry" />
        </mxCell>
        <mxCell id="uNBusU7-LIBpm6ln_LhO-3" value="Dokter" style="shape=umlActor;verticalLabelPosition=bottom;verticalAlign=top;html=1;outlineConnect=0;" vertex="1" parent="1">
          <mxGeometry x="940" y="-100" width="30" height="60" as="geometry" />
        </mxCell>
        <mxCell id="uNBusU7-LIBpm6ln_LhO-6" value="" style="swimlane;startSize=0;" vertex="1" parent="1">
          <mxGeometry x="230" y="-370" width="710" height="1100" as="geometry" />
        </mxCell>
        <mxCell id="uNBusU7-LIBpm6ln_LhO-12" style="rounded=0;orthogonalLoop=1;jettySize=auto;html=1;dashed=1;" edge="1" parent="uNBusU7-LIBpm6ln_LhO-6" source="uNBusU7-LIBpm6ln_LhO-7" target="uNBusU7-LIBpm6ln_LhO-9">
          <mxGeometry relative="1" as="geometry" />
        </mxCell>
        <mxCell id="uNBusU7-LIBpm6ln_LhO-13" value="&amp;lt;&amp;lt;include&amp;gt;&amp;gt;" style="edgeLabel;html=1;align=center;verticalAlign=middle;resizable=0;points=[];" vertex="1" connectable="0" parent="uNBusU7-LIBpm6ln_LhO-12">
          <mxGeometry x="-0.3452" y="-2" relative="1" as="geometry">
            <mxPoint as="offset" />
          </mxGeometry>
        </mxCell>
        <mxCell id="uNBusU7-LIBpm6ln_LhO-7" value="Login" style="ellipse;whiteSpace=wrap;html=1;" vertex="1" parent="uNBusU7-LIBpm6ln_LhO-6">
          <mxGeometry x="275" y="60" width="160" height="50" as="geometry" />
        </mxCell>
        <mxCell id="uNBusU7-LIBpm6ln_LhO-9" value="Home" style="ellipse;whiteSpace=wrap;html=1;" vertex="1" parent="uNBusU7-LIBpm6ln_LhO-6">
          <mxGeometry x="260" y="170" width="180" height="50" as="geometry" />
        </mxCell>
        <mxCell id="uNBusU7-LIBpm6ln_LhO-18" style="rounded=0;orthogonalLoop=1;jettySize=auto;html=1;" edge="1" parent="uNBusU7-LIBpm6ln_LhO-6" source="uNBusU7-LIBpm6ln_LhO-17" target="uNBusU7-LIBpm6ln_LhO-9">
          <mxGeometry relative="1" as="geometry" />
        </mxCell>
        <mxCell id="uNBusU7-LIBpm6ln_LhO-17" value="Profile kesehatan" style="ellipse;whiteSpace=wrap;html=1;" vertex="1" parent="uNBusU7-LIBpm6ln_LhO-6">
          <mxGeometry x="250" y="260" width="250" height="80" as="geometry" />
        </mxCell>
        <mxCell id="uNBusU7-LIBpm6ln_LhO-24" value="Fitur Konsultasi" style="ellipse;whiteSpace=wrap;html=1;" vertex="1" parent="uNBusU7-LIBpm6ln_LhO-6">
          <mxGeometry x="280" y="650" width="190" height="80" as="geometry" />
        </mxCell>
        <mxCell id="uNBusU7-LIBpm6ln_LhO-25" value="Riwayat kesehatan diri / keluarga" style="ellipse;whiteSpace=wrap;html=1;" vertex="1" parent="uNBusU7-LIBpm6ln_LhO-6">
          <mxGeometry x="320" y="420" width="190" height="80" as="geometry" />
        </mxCell>
        <mxCell id="uNBusU7-LIBpm6ln_LhO-26" value="Pengingat Obat" style="ellipse;whiteSpace=wrap;html=1;" vertex="1" parent="uNBusU7-LIBpm6ln_LhO-6">
          <mxGeometry x="300" y="530" width="185" height="80" as="geometry" />
        </mxCell>
        <mxCell id="uNBusU7-LIBpm6ln_LhO-14" value="Registrasi" style="ellipse;whiteSpace=wrap;html=1;" vertex="1" parent="uNBusU7-LIBpm6ln_LhO-6">
          <mxGeometry x="520" y="20" width="170" height="50" as="geometry" />
        </mxCell>
        <mxCell id="uNBusU7-LIBpm6ln_LhO-15" style="rounded=0;orthogonalLoop=1;jettySize=auto;html=1;dashed=1;" edge="1" parent="uNBusU7-LIBpm6ln_LhO-6" source="uNBusU7-LIBpm6ln_LhO-14" target="uNBusU7-LIBpm6ln_LhO-7">
          <mxGeometry relative="1" as="geometry" />
        </mxCell>
        <mxCell id="uNBusU7-LIBpm6ln_LhO-16" value="&amp;lt;&amp;lt;include&amp;gt;&amp;gt;" style="edgeLabel;html=1;align=center;verticalAlign=middle;resizable=0;points=[];" vertex="1" connectable="0" parent="uNBusU7-LIBpm6ln_LhO-15">
          <mxGeometry x="-0.1013" y="5" relative="1" as="geometry">
            <mxPoint as="offset" />
          </mxGeometry>
        </mxCell>
        <mxCell id="uNBusU7-LIBpm6ln_LhO-10" style="rounded=0;orthogonalLoop=1;jettySize=auto;html=1;entryX=0;entryY=0.5;entryDx=0;entryDy=0;" edge="1" parent="1" source="uNBusU7-LIBpm6ln_LhO-2" target="uNBusU7-LIBpm6ln_LhO-9">
          <mxGeometry relative="1" as="geometry" />
        </mxCell>
        <mxCell id="uNBusU7-LIBpm6ln_LhO-33" style="rounded=0;orthogonalLoop=1;jettySize=auto;html=1;entryX=0;entryY=0.5;entryDx=0;entryDy=0;dashed=1;" edge="1" parent="1" source="uNBusU7-LIBpm6ln_LhO-32" target="uNBusU7-LIBpm6ln_LhO-17">
          <mxGeometry relative="1" as="geometry" />
        </mxCell>
        <mxCell id="uNBusU7-LIBpm6ln_LhO-34" value="&amp;lt;&amp;lt;extend&amp;gt;&amp;gt;" style="edgeLabel;html=1;align=center;verticalAlign=middle;resizable=0;points=[];" vertex="1" connectable="0" parent="uNBusU7-LIBpm6ln_LhO-33">
          <mxGeometry x="-0.2859" y="-2" relative="1" as="geometry">
            <mxPoint as="offset" />
          </mxGeometry>
        </mxCell>
        <mxCell id="uNBusU7-LIBpm6ln_LhO-32" value="Wearable Health Device" style="ellipse;whiteSpace=wrap;html=1;" vertex="1" parent="1">
          <mxGeometry x="-30" y="-280" width="210" height="80" as="geometry" />
        </mxCell>
      </root>
    </mxGraphModel>
  </diagram>
</mxfile>
